<svg width="375" height="82" viewBox="0 0 375 82" fill="none" xmlns="http://www.w3.org/2000/svg">
<path d="M99.7472 26.304H93.3551C93.2699 25.6477 93.0952 25.0554 92.831 24.527C92.5668 23.9986 92.2173 23.5469 91.7827 23.1719C91.348 22.7969 90.8324 22.5114 90.2358 22.3153C89.6477 22.1108 88.9957 22.0085 88.2798 22.0085C87.0099 22.0085 85.9148 22.3196 84.9943 22.9418C84.0824 23.5639 83.3793 24.4631 82.8849 25.6392C82.3991 26.8153 82.1562 28.2386 82.1562 29.9091C82.1562 31.6477 82.4034 33.1051 82.8977 34.2812C83.4006 35.4489 84.1037 36.331 85.0071 36.9276C85.919 37.5156 86.9972 37.8097 88.2415 37.8097C88.9403 37.8097 89.5753 37.7202 90.1463 37.5412C90.7259 37.3622 91.233 37.1023 91.6676 36.7614C92.1108 36.4119 92.473 35.9901 92.7543 35.4957C93.044 34.9929 93.2443 34.4261 93.3551 33.7955L99.7472 33.8338C99.6364 34.9929 99.2997 36.1349 98.7372 37.2599C98.1832 38.3849 97.4205 39.4119 96.4489 40.3409C95.4773 41.2614 94.2926 41.9943 92.8949 42.5398C91.5057 43.0852 89.9119 43.358 88.1136 43.358C85.7443 43.358 83.6222 42.8381 81.7472 41.7983C79.8807 40.75 78.4063 39.2244 77.3239 37.2216C76.2415 35.2187 75.7003 32.7812 75.7003 29.9091C75.7003 27.0284 76.25 24.5866 77.3494 22.5838C78.4489 20.581 79.9361 19.0597 81.8111 18.0199C83.6861 16.9801 85.7869 16.4602 88.1136 16.4602C89.6989 16.4602 91.1648 16.6818 92.5114 17.125C93.858 17.5597 95.0426 18.1989 96.0653 19.0426C97.0881 19.8778 97.919 20.9048 98.5582 22.1236C99.1974 23.3423 99.5938 24.7358 99.7472 26.304ZM103.368 43V16.8182H114.184C116.144 16.8182 117.836 17.1719 119.259 17.8793C120.691 18.5781 121.794 19.5838 122.57 20.8963C123.346 22.2003 123.733 23.7472 123.733 25.5369C123.733 27.3523 123.337 28.8949 122.544 30.1648C121.752 31.4261 120.627 32.3892 119.169 33.054C117.712 33.7102 115.986 34.0384 113.992 34.0384H107.152V29.0526H112.816C113.77 29.0526 114.567 28.929 115.206 28.6818C115.854 28.4261 116.344 28.0426 116.676 27.5312C117.009 27.0114 117.175 26.3466 117.175 25.5369C117.175 24.7273 117.009 24.0582 116.676 23.5298C116.344 22.9929 115.854 22.5923 115.206 22.3281C114.559 22.0554 113.762 21.919 112.816 21.919H109.696V43H103.368ZM118.108 31.0341L124.628 43H117.725L111.333 31.0341H118.108ZM124.74 16.8182H131.81L137.345 27.7741H137.575L143.111 16.8182H150.18L140.605 34.2557V43H134.315V34.2557L124.74 16.8182ZM152.833 43V16.8182H163.648C165.609 16.8182 167.3 17.2017 168.724 17.9688C170.156 18.7273 171.259 19.7884 172.035 21.152C172.81 22.5071 173.198 24.0838 173.198 25.8821C173.198 27.6889 172.802 29.2699 172.009 30.625C171.225 31.9716 170.104 33.0156 168.647 33.7571C167.19 34.4986 165.46 34.8693 163.457 34.8693H156.783V29.8835H162.281C163.235 29.8835 164.032 29.7173 164.671 29.3849C165.319 29.0526 165.809 28.5881 166.141 27.9915C166.474 27.3864 166.64 26.6832 166.64 25.8821C166.64 25.0724 166.474 24.3736 166.141 23.7855C165.809 23.1889 165.319 22.7287 164.671 22.4048C164.023 22.081 163.227 21.919 162.281 21.919H159.161V43H152.833ZM175.461 21.9574V16.8182H197.59V21.9574H189.651V43H183.413V21.9574H175.461ZM224.197 29.9091C224.197 32.7898 223.643 35.2315 222.535 37.2344C221.427 39.2372 219.927 40.7585 218.035 41.7983C216.152 42.8381 214.038 43.358 211.694 43.358C209.342 43.358 207.224 42.8338 205.341 41.7855C203.457 40.7372 201.961 39.2159 200.853 37.2216C199.754 35.2187 199.204 32.7812 199.204 29.9091C199.204 27.0284 199.754 24.5866 200.853 22.5838C201.961 20.581 203.457 19.0597 205.341 18.0199C207.224 16.9801 209.342 16.4602 211.694 16.4602C214.038 16.4602 216.152 16.9801 218.035 18.0199C219.927 19.0597 221.427 20.581 222.535 22.5838C223.643 24.5866 224.197 27.0284 224.197 29.9091ZM217.728 29.9091C217.728 28.2045 217.485 26.7642 217 25.5881C216.522 24.4119 215.832 23.5213 214.929 22.9162C214.034 22.3111 212.956 22.0085 211.694 22.0085C210.441 22.0085 209.363 22.3111 208.46 22.9162C207.556 23.5213 206.862 24.4119 206.376 25.5881C205.899 26.7642 205.66 28.2045 205.66 29.9091C205.66 31.6136 205.899 33.054 206.376 34.2301C206.862 35.4062 207.556 36.2969 208.46 36.902C209.363 37.5071 210.441 37.8097 211.694 37.8097C212.956 37.8097 214.034 37.5071 214.929 36.902C215.832 36.2969 216.522 35.4062 217 34.2301C217.485 33.054 217.728 31.6136 217.728 29.9091ZM227.892 43V16.8182H245.764V21.9574H234.22V27.3267H244.626V32.4787H234.22V43H227.892ZM273.662 29.9091C273.662 32.7898 273.108 35.2315 272 37.2344C270.892 39.2372 269.392 40.7585 267.5 41.7983C265.616 42.8381 263.503 43.358 261.159 43.358C258.807 43.358 256.689 42.8338 254.805 41.7855C252.922 40.7372 251.426 39.2159 250.318 37.2216C249.219 35.2187 248.669 32.7812 248.669 29.9091C248.669 27.0284 249.219 24.5866 250.318 22.5838C251.426 20.581 252.922 19.0597 254.805 18.0199C256.689 16.9801 258.807 16.4602 261.159 16.4602C263.503 16.4602 265.616 16.9801 267.5 18.0199C269.392 19.0597 270.892 20.581 272 22.5838C273.108 24.5866 273.662 27.0284 273.662 29.9091ZM267.193 29.9091C267.193 28.2045 266.95 26.7642 266.464 25.5881C265.987 24.4119 265.297 23.5213 264.393 22.9162C263.499 22.3111 262.42 22.0085 261.159 22.0085C259.906 22.0085 258.828 22.3111 257.925 22.9162C257.021 23.5213 256.327 24.4119 255.841 25.5881C255.364 26.7642 255.125 28.2045 255.125 29.9091C255.125 31.6136 255.364 33.054 255.841 34.2301C256.327 35.4062 257.021 36.2969 257.925 36.902C258.828 37.5071 259.906 37.8097 261.159 37.8097C262.42 37.8097 263.499 37.5071 264.393 36.902C265.297 36.2969 265.987 35.4062 266.464 34.2301C266.95 33.054 267.193 31.6136 267.193 29.9091ZM277.357 43V16.8182H283.685V37.8608H294.577V43H277.357ZM304.181 16.8182V43H297.853V16.8182H304.181ZM332.865 29.9091C332.865 32.7898 332.311 35.2315 331.203 37.2344C330.095 39.2372 328.595 40.7585 326.703 41.7983C324.82 42.8381 322.706 43.358 320.362 43.358C318.01 43.358 315.892 42.8338 314.009 41.7855C312.125 40.7372 310.629 39.2159 309.521 37.2216C308.422 35.2187 307.872 32.7812 307.872 29.9091C307.872 27.0284 308.422 24.5866 309.521 22.5838C310.629 20.581 312.125 19.0597 314.009 18.0199C315.892 16.9801 318.01 16.4602 320.362 16.4602C322.706 16.4602 324.82 16.9801 326.703 18.0199C328.595 19.0597 330.095 20.581 331.203 22.5838C332.311 24.5866 332.865 27.0284 332.865 29.9091ZM326.396 29.9091C326.396 28.2045 326.153 26.7642 325.668 25.5881C325.19 24.4119 324.5 23.5213 323.597 22.9162C322.702 22.3111 321.624 22.0085 320.362 22.0085C319.109 22.0085 318.031 22.3111 317.128 22.9162C316.224 23.5213 315.53 24.4119 315.044 25.5881C314.567 26.7642 314.328 28.2045 314.328 29.9091C314.328 31.6136 314.567 33.054 315.044 34.2301C315.53 35.4062 316.224 36.2969 317.128 36.902C318.031 37.5071 319.109 37.8097 320.362 37.8097C321.624 37.8097 322.702 37.5071 323.597 36.902C324.5 36.2969 325.19 35.4062 325.668 34.2301C326.153 33.054 326.396 31.6136 326.396 29.9091Z" fill="#542BDB"/>
<g clip-path="url(#clip0_47_2)">
<path d="M57.188 8.93328C50.8607 3.17248 42.4482 0 33.5 0C24.5518 0 16.1393 3.17248 9.81197 8.93328C3.48465 14.694 0 22.3532 0 30.5C0 38.6468 3.48465 46.306 9.81197 52.0667C16.1393 57.8275 24.5518 61 33.5 61C42.4482 61 50.8607 57.8275 57.188 52.0667C63.5153 46.306 67 38.6468 67 30.5C67 22.3532 63.5153 14.694 57.188 8.93328ZM55.7046 50.716C49.7734 56.1158 41.8877 59.0898 33.5 59.0898C25.1123 59.0898 17.2266 56.1158 11.2954 50.716C5.36445 45.3161 2.09807 38.1366 2.09807 30.5C2.09807 22.8634 5.36445 15.6839 11.2954 10.284C17.2266 4.88417 25.1123 1.91018 33.5 1.91018C41.8877 1.91018 49.7734 4.88417 55.7046 10.284C61.6356 15.6838 64.9019 22.8633 64.9019 30.5C64.9019 38.1367 61.6356 45.3161 55.7046 50.716Z" fill="#542BDB"/>
<path d="M33.5 5.09396C18.113 5.09396 5.59503 16.491 5.59503 30.5C5.59503 44.509 18.113 55.906 33.5 55.906C48.887 55.906 61.405 44.509 61.405 30.5C61.405 16.491 48.887 5.09396 33.5 5.09396ZM33.5 53.9958C19.27 53.9958 7.6931 43.4556 7.6931 30.5C7.6931 17.5444 19.27 7.00415 33.5 7.00415C47.73 7.00415 59.3069 17.5444 59.3069 30.5C59.3069 43.4556 47.73 53.9958 33.5 53.9958Z" fill="#542BDB"/>
<path d="M41.0256 29.0944C42.5344 27.9846 43.5011 26.2867 43.5011 24.3874C43.5011 21.052 40.5205 18.3384 36.8571 18.3384H35.6681V16.2371C35.6681 15.7095 35.1984 15.2819 34.619 15.2819C34.0395 15.2819 33.5699 15.7094 33.5699 16.2371V18.3384H31.192V16.2371C31.192 15.7095 30.7224 15.2819 30.1429 15.2819C29.5635 15.2819 29.0938 15.7094 29.0938 16.2371V18.3384H24.5479C23.9686 18.3384 23.4988 18.7658 23.4988 19.2935C23.4988 19.8211 23.9685 20.2487 24.5479 20.2487H25.7369V40.7518H24.5479C23.9686 40.7518 23.4988 41.1793 23.4988 41.707C23.4988 42.2345 23.9685 42.6621 24.5479 42.6621H29.0938V44.7634C29.0938 45.2909 29.5635 45.7185 30.1429 45.7185C30.7224 45.7185 31.192 45.2911 31.192 44.7634V42.6621H33.5699V44.7634C33.5699 45.2909 34.0395 45.7185 34.619 45.7185C35.1984 45.7185 35.6681 45.2911 35.6681 44.7634V42.6621H37.976C42.2566 42.6621 45.7391 39.4915 45.7391 35.5942C45.739 32.6817 43.7946 30.1752 41.0256 29.0944ZM27.8351 20.2484H36.8571C39.3637 20.2484 41.403 22.105 41.403 24.3872C41.403 26.6695 39.3637 28.5261 36.8571 28.5261H27.8351V20.2484ZM37.976 40.7516H27.8351V30.4364H37.976C41.0998 30.4364 43.6409 32.7501 43.6409 35.594C43.6409 38.4379 41.0997 40.7516 37.976 40.7516Z" fill="#542BDB"/>
</g>
<defs>
<clipPath id="clip0_47_2">
<rect width="67" height="61" fill="white"/>
</clipPath>
</defs>
</svg>
